# xmcd
#
# Track frame offsets:
# 150
# 13574
# 30417
# 49434
# 66724
# 85143
# 104931
# 121963
# 143583
# 160908
# 180200
# 194257
# 213108
# 229193
# 250713
#
# Disc length: 3554 seconds
#
# Revision: 0
# Processed by: cddbd v1.5.2PL0 Copyright (c) Steve Scherf et al.
# Submitted via: Audion 3.0.2 (http://www.panic.com/audion/)
#
DISCID=cb0de00f
DTITLE=BEN l'Oncle Soul - BEN l'Oncle Soul
DYEAR=1900
DGENRE=
TTITLE0=Seven nation army
TTITLE1=Soulman
TTITLE2=Petite soeur
TTITLE3=Mon amour
TTITLE4=Elle me dit
TTITLE5=I don't wana waste
TTITLE6=Come home
TTITLE7=L'ombre d'un homme
TTITLE8=Ain't offto the back
TTITLE9=Lise
TTITLE10=Demain j'arrète
TTITLE11=Partir
TTITLE12=Lose it
TTITLE13=Back for you
TTITLE14=Soulman version piano voix
EXTD=
EXTT0=
EXTT1=
EXTT2=
EXTT3=
EXTT4=
EXTT5=
EXTT6=
EXTT7=
EXTT8=
EXTT9=
EXTT10=
EXTT11=
EXTT12=
EXTT13=
EXTT14=
PLAYORDER=
